<mxfile host="65bd71144e">
    <diagram id="U2VAW3dLaZVnhBtAp40N" name="Page-1">
        <mxGraphModel dx="852" dy="1079" grid="1" gridSize="10" guides="1" tooltips="1" connect="1" arrows="1" fold="1" page="1" pageScale="1" pageWidth="827" pageHeight="1169" math="0" shadow="0">
            <root>
                <mxCell id="0"/>
                <mxCell id="1" parent="0"/>
                <mxCell id="3" value="characteristics" style="shape=table;startSize=30;container=1;collapsible=0;childLayout=tableLayout;" parent="1" vertex="1">
                    <mxGeometry x="158.14814814814815" y="732.7548648648649" width="187.83333333333331" height="80.27027027027027" as="geometry"/>
                </mxCell>
                <mxCell id="4" value="" style="shape=tableRow;horizontal=0;startSize=0;swimlaneHead=0;swimlaneBody=0;top=0;left=0;bottom=0;right=0;collapsible=0;dropTarget=0;fillColor=none;points=[[0,0.5],[1,0.5]];portConstraint=eastwest;" parent="3" vertex="1">
                    <mxGeometry y="30" width="187.83333333333331" height="26" as="geometry"/>
                </mxCell>
                <mxCell id="5" value="model" style="shape=partialRectangle;html=1;whiteSpace=wrap;connectable=0;overflow=hidden;fillColor=none;top=0;left=0;bottom=0;right=0;pointerEvents=1;" parent="4" vertex="1">
                    <mxGeometry width="63" height="26" as="geometry">
                        <mxRectangle width="63" height="26" as="alternateBounds"/>
                    </mxGeometry>
                </mxCell>
                <mxCell id="6" value="data" style="shape=partialRectangle;html=1;whiteSpace=wrap;connectable=0;overflow=hidden;fillColor=none;top=0;left=0;bottom=0;right=0;pointerEvents=1;" parent="4" vertex="1">
                    <mxGeometry x="63" width="62" height="26" as="geometry">
                        <mxRectangle width="62" height="26" as="alternateBounds"/>
                    </mxGeometry>
                </mxCell>
                <mxCell id="7" value="hardware" style="shape=partialRectangle;html=1;whiteSpace=wrap;connectable=0;overflow=hidden;fillColor=none;top=0;left=0;bottom=0;right=0;pointerEvents=1;" parent="4" vertex="1">
                    <mxGeometry x="125" width="63" height="26" as="geometry">
                        <mxRectangle width="63" height="26" as="alternateBounds"/>
                    </mxGeometry>
                </mxCell>
                <mxCell id="8" value="" style="shape=tableRow;horizontal=0;startSize=0;swimlaneHead=0;swimlaneBody=0;top=0;left=0;bottom=0;right=0;collapsible=0;dropTarget=0;fillColor=none;points=[[0,0.5],[1,0.5]];portConstraint=eastwest;" parent="3" vertex="1">
                    <mxGeometry y="56" width="187.83333333333331" height="24" as="geometry"/>
                </mxCell>
                <mxCell id="9" value="..." style="shape=partialRectangle;html=1;whiteSpace=wrap;connectable=0;overflow=hidden;fillColor=none;top=0;left=0;bottom=0;right=0;pointerEvents=1;" parent="8" vertex="1">
                    <mxGeometry width="63" height="24" as="geometry">
                        <mxRectangle width="63" height="24" as="alternateBounds"/>
                    </mxGeometry>
                </mxCell>
                <mxCell id="10" value="..." style="shape=partialRectangle;html=1;whiteSpace=wrap;connectable=0;overflow=hidden;fillColor=none;top=0;left=0;bottom=0;right=0;pointerEvents=1;" parent="8" vertex="1">
                    <mxGeometry x="63" width="62" height="24" as="geometry">
                        <mxRectangle width="62" height="24" as="alternateBounds"/>
                    </mxGeometry>
                </mxCell>
                <mxCell id="11" value="..." style="shape=partialRectangle;html=1;whiteSpace=wrap;connectable=0;overflow=hidden;fillColor=none;top=0;left=0;bottom=0;right=0;pointerEvents=1;" parent="8" vertex="1">
                    <mxGeometry x="125" width="63" height="24" as="geometry">
                        <mxRectangle width="63" height="24" as="alternateBounds"/>
                    </mxGeometry>
                </mxCell>
                <mxCell id="14" value="Kernel cost embedding" style="whiteSpace=wrap;html=1;startSize=30;" parent="1" vertex="1">
                    <mxGeometry x="521.1111111111111" y="697" width="108.88888888888889" height="43.78378378378379" as="geometry"/>
                </mxCell>
                <mxCell id="15" value="Profiling metrics (per kernel)" style="shape=table;startSize=30;container=1;collapsible=0;childLayout=tableLayout;" parent="1" vertex="1">
                    <mxGeometry x="140" y="640" width="330" height="80.27" as="geometry"/>
                </mxCell>
                <mxCell id="16" value="" style="shape=tableRow;horizontal=0;startSize=0;swimlaneHead=0;swimlaneBody=0;top=0;left=0;bottom=0;right=0;collapsible=0;dropTarget=0;fillColor=none;points=[[0,0.5],[1,0.5]];portConstraint=eastwest;" parent="15" vertex="1">
                    <mxGeometry y="30" width="330" height="26" as="geometry"/>
                </mxCell>
                <mxCell id="17" value="Dataset" style="shape=partialRectangle;html=1;whiteSpace=wrap;connectable=0;overflow=hidden;fillColor=none;top=0;left=0;bottom=0;right=0;pointerEvents=1;" parent="16" vertex="1">
                    <mxGeometry width="48" height="26" as="geometry">
                        <mxRectangle width="48" height="26" as="alternateBounds"/>
                    </mxGeometry>
                </mxCell>
                <mxCell id="18" value="GPU" style="shape=partialRectangle;html=1;whiteSpace=wrap;connectable=0;overflow=hidden;fillColor=none;top=0;left=0;bottom=0;right=0;pointerEvents=1;" parent="16" vertex="1">
                    <mxGeometry x="48" width="46" height="26" as="geometry">
                        <mxRectangle width="46" height="26" as="alternateBounds"/>
                    </mxGeometry>
                </mxCell>
                <mxCell id="19" value="operator" style="shape=partialRectangle;html=1;whiteSpace=wrap;connectable=0;overflow=hidden;fillColor=none;top=0;left=0;bottom=0;right=0;pointerEvents=1;" parent="16" vertex="1">
                    <mxGeometry x="94" width="56" height="26" as="geometry">
                        <mxRectangle width="56" height="26" as="alternateBounds"/>
                    </mxGeometry>
                </mxCell>
                <mxCell id="20" value="type" style="shape=partialRectangle;html=1;whiteSpace=wrap;connectable=0;overflow=hidden;fillColor=none;top=0;left=0;bottom=0;right=0;pointerEvents=1;" parent="16" vertex="1">
                    <mxGeometry x="150" width="38" height="26" as="geometry">
                        <mxRectangle width="38" height="26" as="alternateBounds"/>
                    </mxGeometry>
                </mxCell>
                <mxCell id="21" value="kernel" style="shape=partialRectangle;html=1;whiteSpace=wrap;connectable=0;overflow=hidden;fillColor=none;top=0;left=0;bottom=0;right=0;pointerEvents=1;" parent="16" vertex="1">
                    <mxGeometry x="188" width="47" height="26" as="geometry">
                        <mxRectangle width="47" height="26" as="alternateBounds"/>
                    </mxGeometry>
                </mxCell>
                <mxCell id="22" value="metric" style="shape=partialRectangle;html=1;whiteSpace=wrap;connectable=0;overflow=hidden;fillColor=none;top=0;left=0;bottom=0;right=0;pointerEvents=1;" parent="16" vertex="1">
                    <mxGeometry x="235" width="47" height="26" as="geometry">
                        <mxRectangle width="47" height="26" as="alternateBounds"/>
                    </mxGeometry>
                </mxCell>
                <mxCell id="23" value="metric" style="shape=partialRectangle;html=1;whiteSpace=wrap;connectable=0;overflow=hidden;fillColor=none;top=0;left=0;bottom=0;right=0;pointerEvents=1;" parent="16" vertex="1">
                    <mxGeometry x="282" width="48" height="26" as="geometry">
                        <mxRectangle width="48" height="26" as="alternateBounds"/>
                    </mxGeometry>
                </mxCell>
                <mxCell id="25" value="" style="shape=tableRow;horizontal=0;startSize=0;swimlaneHead=0;swimlaneBody=0;top=0;left=0;bottom=0;right=0;collapsible=0;dropTarget=0;fillColor=none;points=[[0,0.5],[1,0.5]];portConstraint=eastwest;" parent="15" vertex="1">
                    <mxGeometry y="56" width="330" height="24" as="geometry"/>
                </mxCell>
                <mxCell id="26" value=".." style="shape=partialRectangle;html=1;whiteSpace=wrap;connectable=0;overflow=hidden;fillColor=none;top=0;left=0;bottom=0;right=0;pointerEvents=1;" parent="25" vertex="1">
                    <mxGeometry width="48" height="24" as="geometry">
                        <mxRectangle width="48" height="24" as="alternateBounds"/>
                    </mxGeometry>
                </mxCell>
                <mxCell id="27" value=".." style="shape=partialRectangle;html=1;whiteSpace=wrap;connectable=0;overflow=hidden;fillColor=none;top=0;left=0;bottom=0;right=0;pointerEvents=1;" parent="25" vertex="1">
                    <mxGeometry x="48" width="46" height="24" as="geometry">
                        <mxRectangle width="46" height="24" as="alternateBounds"/>
                    </mxGeometry>
                </mxCell>
                <mxCell id="28" value=".." style="shape=partialRectangle;html=1;whiteSpace=wrap;connectable=0;overflow=hidden;fillColor=none;top=0;left=0;bottom=0;right=0;pointerEvents=1;" parent="25" vertex="1">
                    <mxGeometry x="94" width="56" height="24" as="geometry">
                        <mxRectangle width="56" height="24" as="alternateBounds"/>
                    </mxGeometry>
                </mxCell>
                <mxCell id="29" value="F/M" style="shape=partialRectangle;html=1;whiteSpace=wrap;connectable=0;overflow=hidden;fillColor=none;top=0;left=0;bottom=0;right=0;pointerEvents=1;" parent="25" vertex="1">
                    <mxGeometry x="150" width="38" height="24" as="geometry">
                        <mxRectangle width="38" height="24" as="alternateBounds"/>
                    </mxGeometry>
                </mxCell>
                <mxCell id="30" value="..." style="shape=partialRectangle;html=1;whiteSpace=wrap;connectable=0;overflow=hidden;fillColor=none;top=0;left=0;bottom=0;right=0;pointerEvents=1;" parent="25" vertex="1">
                    <mxGeometry x="188" width="47" height="24" as="geometry">
                        <mxRectangle width="47" height="24" as="alternateBounds"/>
                    </mxGeometry>
                </mxCell>
                <mxCell id="31" value="..." style="shape=partialRectangle;html=1;whiteSpace=wrap;connectable=0;overflow=hidden;fillColor=none;top=0;left=0;bottom=0;right=0;pointerEvents=1;" parent="25" vertex="1">
                    <mxGeometry x="235" width="47" height="24" as="geometry">
                        <mxRectangle width="47" height="24" as="alternateBounds"/>
                    </mxGeometry>
                </mxCell>
                <mxCell id="32" value="..." style="shape=partialRectangle;html=1;whiteSpace=wrap;connectable=0;overflow=hidden;fillColor=none;top=0;left=0;bottom=0;right=0;pointerEvents=1;" parent="25" vertex="1">
                    <mxGeometry x="282" width="48" height="24" as="geometry">
                        <mxRectangle width="48" height="24" as="alternateBounds"/>
                    </mxGeometry>
                </mxCell>
                <mxCell id="35" value="Characteristic embedding" style="whiteSpace=wrap;html=1;startSize=30;" parent="1" vertex="1">
                    <mxGeometry x="375.9259259259259" y="753.8594594594595" width="108.88888888888889" height="43.78378378378379" as="geometry"/>
                </mxCell>
                <mxCell id="37" value="fully connected layer" style="whiteSpace=wrap;html=1;fontSize=14;" parent="1" vertex="1">
                    <mxGeometry x="521.1111111111111" y="754" width="108.88888888888889" height="43.78378378378379" as="geometry"/>
                </mxCell>
                <mxCell id="38" value="Factorize/&lt;br&gt;materialize" style="rounded=1;whiteSpace=wrap;html=1;fontSize=14;" parent="1" vertex="1">
                    <mxGeometry x="521.1111111111111" y="869.2162162162163" width="108.88888888888889" height="43.78378378378379" as="geometry"/>
                </mxCell>
                <mxCell id="40" value="output layer" style="whiteSpace=wrap;html=1;fontSize=14;" parent="1" vertex="1">
                    <mxGeometry x="521.1111111111111" y="812" width="108.88888888888889" height="43.78378378378379" as="geometry"/>
                </mxCell>
                <mxCell id="43" style="edgeStyle=orthogonalEdgeStyle;html=1;exitX=1;exitY=0.5;exitDx=0;exitDy=0;curved=1;entryX=0.5;entryY=0;entryDx=0;entryDy=0;" parent="1" source="16" target="14" edge="1">
                    <mxGeometry relative="1" as="geometry">
                        <mxPoint x="684.4444444444445" y="1085.135135135135" as="targetPoint"/>
                        <Array as="points">
                            <mxPoint x="576" y="683"/>
                        </Array>
                    </mxGeometry>
                </mxCell>
                <mxCell id="2" value="" style="edgeStyle=orthogonalEdgeStyle;html=1;fontSize=14;exitX=1;exitY=0.5;exitDx=0;exitDy=0;entryX=0;entryY=0.5;entryDx=0;entryDy=0;" parent="1" source="4" target="35" edge="1">
                    <mxGeometry relative="1" as="geometry">
                        <Array as="points">
                            <mxPoint x="360" y="776"/>
                            <mxPoint x="360" y="776"/>
                        </Array>
                    </mxGeometry>
                </mxCell>
                <mxCell id="44" style="edgeStyle=orthogonalEdgeStyle;html=1;entryX=0.5;entryY=0;entryDx=0;entryDy=0;elbow=vertical;curved=1;" parent="1" source="14" target="37" edge="1">
                    <mxGeometry relative="1" as="geometry"/>
                </mxCell>
                <mxCell id="45" style="edgeStyle=orthogonalEdgeStyle;curved=1;html=1;entryX=0;entryY=0.5;entryDx=0;entryDy=0;elbow=vertical;" parent="1" source="35" target="37" edge="1">
                    <mxGeometry relative="1" as="geometry"/>
                </mxCell>
                <mxCell id="36" value="" style="edgeStyle=orthogonalEdgeStyle;html=1;fontSize=14;" parent="1" source="37" target="40" edge="1">
                    <mxGeometry relative="1" as="geometry"/>
                </mxCell>
                <mxCell id="39" style="edgeStyle=orthogonalEdgeStyle;html=1;fontSize=14;" parent="1" source="40" target="38" edge="1">
                    <mxGeometry relative="1" as="geometry"/>
                </mxCell>
            </root>
        </mxGraphModel>
    </diagram>
</mxfile>